<?xml version="1.0" encoding="utf-8"?>
<!-- Generator: Adobe Illustrator 19.0.0, SVG Export Plug-In . SVG Version: 6.00 Build 0)  -->
<svg version="1.1" id="Layer_1" xmlns="http://www.w3.org/2000/svg" xmlns:xlink="http://www.w3.org/1999/xlink" x="0px" y="0px"
	 viewBox="0 0 74.7 79.7" style="enable-background:new 0 0 74.7 79.7;" xml:space="preserve">
<style type="text/css">
	
		.st0{fill-rule:evenodd;clip-rule:evenodd;fill:none;stroke:#B8B8B8;stroke-width:1.4;stroke-linecap:round;stroke-linejoin:round;stroke-miterlimit:22.9256;}
	.st1{fill:none;stroke:#B8B8B8;stroke-width:1.4;stroke-linecap:round;stroke-linejoin:round;stroke-miterlimit:22.9256;}
</style>
<g>
	<path class="st0" d="M49.1,66.8H3.9c-0.7,0-1.3-0.6-1.3-1.3V3.8c0-0.7,0.6-1.3,1.3-1.3h45.2c0.7,0,1.3,0.6,1.3,1.3v61.7
		C50.4,66.2,49.8,66.8,49.1,66.8z"/>
	<g>
		<line class="st1" x1="7.5" y1="62.2" x2="45.6" y2="62.2"/>
		<line class="st1" x1="7.5" y1="45" x2="45.6" y2="45"/>
		<line class="st1" x1="7.5" y1="48.4" x2="45.6" y2="48.4"/>
		<line class="st1" x1="7.5" y1="51.9" x2="45.6" y2="51.9"/>
		<line class="st1" x1="7.5" y1="55.3" x2="45.6" y2="55.3"/>
		<line class="st1" x1="7.5" y1="58.7" x2="45.6" y2="58.7"/>
		<path class="st1" d="M39.3,62.2"/>
		<path class="st1" d="M32.9,62.2"/>
		<path class="st1" d="M26.6,62.2"/>
		<path class="st1" d="M20.2,62.2"/>
		<path class="st1" d="M13.9,62.2"/>
	</g>
	<g>
		<line class="st1" x1="7.5" y1="41.5" x2="45.6" y2="41.5"/>
		<line class="st1" x1="7.5" y1="27.7" x2="45.6" y2="27.7"/>
		<line class="st1" x1="7.5" y1="31.2" x2="45.6" y2="31.2"/>
		<line class="st1" x1="7.5" y1="34.6" x2="45.6" y2="34.6"/>
		<line class="st1" x1="7.5" y1="38.1" x2="45.6" y2="38.1"/>
		<path class="st1" d="M39.2,41.5"/>
		<path class="st1" d="M32.9,41.5"/>
		<path class="st1" d="M26.5,41.5"/>
		<path class="st1" d="M20.2,41.5"/>
		<path class="st1" d="M13.8,41.5"/>
	</g>
	<g>
		<line class="st1" x1="17" y1="20.8" x2="36.1" y2="20.8"/>
		<line class="st1" x1="31.1" y1="7.1" x2="45.6" y2="7.1"/>
		<line class="st1" x1="26.6" y1="10.5" x2="45.6" y2="10.5"/>
		<line class="st1" x1="28.3" y1="13.9" x2="45.6" y2="13.9"/>
		<path class="st1" d="M39.3,20.8"/>
		<path class="st1" d="M32.9,20.8"/>
		<path class="st1" d="M26.5,20.8"/>
		<path class="st1" d="M20.2,20.8"/>
		<path class="st1" d="M13.8,20.8"/>
	</g>
</g>
<path class="st0" d="M50.4,12.8h20.3c0.8,0,1.5,0.7,1.5,1.5v61.4c0,0.8-0.7,1.5-1.5,1.5H25.8c-0.8,0-1.5-0.7-1.5-1.5v-8.9"/>
<g>
	<line class="st1" x1="50.4" y1="55.3" x2="67.4" y2="55.3"/>
	<line class="st1" x1="50.4" y1="58.7" x2="67.4" y2="58.7"/>
	<path class="st1" d="M61,72.5"/>
	<path class="st1" d="M54.7,72.5"/>
	<path class="st1" d="M48.3,72.5"/>
	<path class="st1" d="M41.9,72.5"/>
	<path class="st1" d="M35.6,72.5"/>
</g>
<g>
	<line class="st1" x1="50.4" y1="51.8" x2="67.3" y2="51.8"/>
	<line class="st1" x1="50.4" y1="34.6" x2="67.3" y2="34.6"/>
	<line class="st1" x1="50.4" y1="38.1" x2="67.3" y2="38.1"/>
	<line class="st1" x1="50.4" y1="41.5" x2="67.3" y2="41.5"/>
	<line class="st1" x1="50.4" y1="45" x2="67.3" y2="45"/>
	<line class="st1" x1="50.4" y1="48.4" x2="67.3" y2="48.4"/>
	<path class="st1" d="M64.5,51.8"/>
	<path class="st1" d="M61.7,51.8"/>
	<path class="st1" d="M58.9,51.8"/>
	<path class="st1" d="M56,51.8"/>
	<path class="st1" d="M53.2,51.8"/>
</g>
<circle class="st1" cx="62.8" cy="68.8" r="4.6"/>
<circle class="st1" cx="62.8" cy="68.8" r="2.3"/>
<g>
	<line class="st1" x1="50.4" y1="31.2" x2="67.4" y2="31.2"/>
	<line class="st1" x1="50.4" y1="17.4" x2="67.4" y2="17.4"/>
	<line class="st1" x1="50.4" y1="20.8" x2="67.4" y2="20.8"/>
	<line class="st1" x1="50.4" y1="24.3" x2="67.4" y2="24.3"/>
	<line class="st1" x1="50.4" y1="27.7" x2="67.4" y2="27.7"/>
	<path class="st1" d="M64.5,31.2"/>
	<path class="st1" d="M61.7,31.2"/>
	<path class="st1" d="M58.9,31.2"/>
	<path class="st1" d="M56,31.2"/>
	<path class="st1" d="M53.2,31.2"/>
</g>
<line class="st1" x1="45.4" y1="73.5" x2="54.6" y2="73.5"/>
<line class="st1" x1="45.4" y1="70" x2="54.6" y2="70.1"/>
</svg>
