<?xml version="1.0" encoding="utf-8"?>
<!-- Generator: Adobe Illustrator 19.0.0, SVG Export Plug-In . SVG Version: 6.00 Build 0)  -->
<svg version="1.1" id="Layer_1" xmlns="http://www.w3.org/2000/svg" xmlns:xlink="http://www.w3.org/1999/xlink" x="0px" y="0px"
	 viewBox="0 0 14.7 17.5" style="enable-background:new 0 0 14.7 17.5;" xml:space="preserve">
<style type="text/css">
	.st0{fill-rule:evenodd;clip-rule:evenodd;fill:#C7C7C7;}
	.st1{fill:#C7C7C7;}
</style>
<g>
	<path class="st0" d="M7.3,13.9c-3.6,0-6.5-2.9-6.5-6.5C0.8,6.1,1.1,5,1.7,4h1.1l0,0h1.9l-2.1,7.2h2.1L6.8,4h1.9l0.5-1.8H3.3l0,0
		H3.2c1.1-0.9,2.6-1.5,4.1-1.5c0.5,0,1.1,0.1,1.6,0.2c2.9,0.7,5,3.3,5,6.3c0,1.8-0.7,3.4-1.8,4.5h-0.8l0,0l-2.6,0H8.6h0
		c-0.2,0-0.3-0.1-0.4-0.2c-0.1-0.1-0.1-0.3-0.1-0.5c0-0.3,0.1-0.6,0.2-1c0.1-0.4,0.3-1,0.4-1.6C8.8,8,9,7.5,9.1,7.1
		c0.1-0.4,0.3-0.7,0.4-0.9c0.1-0.2,0.3-0.4,0.4-0.5c0.2-0.1,0.3-0.1,0.5-0.1c0.2,0,0.3,0,0.4,0.1C11,5.7,11,5.8,11,5.9
		c0,0.1,0,0.3,0,0.4c0,0.1-0.1,0.3-0.1,0.5c0,0.2-0.1,0.3-0.1,0.4l0,0.1h2l0-0.1c0.2-0.5,0.2-1,0.3-1.4s-0.1-0.7-0.2-1
		c-0.2-0.3-0.4-0.4-0.7-0.6c-0.3-0.1-0.8-0.2-1.3-0.2c-0.6,0-1,0.1-1.5,0.2C9,4.4,8.7,4.6,8.4,4.9c-0.3,0.3-0.6,0.6-0.8,1
		C7.4,6.3,7.2,6.7,7,7.1c-0.2,0.5-0.3,1-0.5,1.5c-0.1,0.5-0.3,1-0.4,1.5C6,10.6,6,11,6,11.4c0,0.4,0.1,0.7,0.2,1
		c0.1,0.3,0.4,0.5,0.7,0.7c0.3,0.2,0.7,0.2,1.3,0.2l0,0h0l0,0h0l1.8,0C9.2,13.7,8.3,13.9,7.3,13.9L7.3,13.9z M14.7,14.7H0V0h14.7
		V14.7L14.7,14.7z M14.5,14.5H0.2V0.2h14.2V14.5L14.5,14.5z"/>
	<path class="st1" d="M0.9,17.2H0.5v-1.3H0v-0.3h1.4v0.3H0.9V17.2L0.9,17.2z M2,16.8h0.3c0.1,0,0.1,0,0.1-0.1v-0.4c0,0,0,0,0-0.1
		c0,0,0,0-0.1,0H2.2c0,0-0.1,0-0.1,0c0,0-0.1,0-0.1,0c0,0-0.1,0-0.1,0V16.8L2,16.8z M2,17.2v0.4H1.5v-1.6h0.4l0,0.1
		C2,16,2,16,2.1,16c0,0,0.1,0,0.1,0c0,0,0.1,0,0.2,0h0.1c0.1,0,0.2,0,0.3,0.1c0.1,0.1,0.1,0.1,0.1,0.3v0.5c0,0.1,0,0.2-0.1,0.3
		s-0.2,0.1-0.3,0.1H2L2,17.2z M3.6,16.8C3.6,16.8,3.7,16.8,3.6,16.8c0.1,0,0.2,0,0.2,0c0,0,0.1,0,0.1,0v-0.1H3.5c0,0,0,0-0.1,0
		c0,0,0,0,0,0.1v0c0,0,0,0,0,0.1C3.5,16.8,3.5,16.8,3.6,16.8L3.6,16.8L3.6,16.8z M3.4,17.2c-0.1,0-0.2,0-0.3-0.1
		c-0.1-0.1-0.1-0.1-0.1-0.3v-0.1c0-0.1,0-0.2,0.1-0.3c0.1-0.1,0.1-0.1,0.3-0.1h0.5v-0.1c0,0,0,0,0-0.1c0,0,0,0-0.1,0
		c-0.1,0-0.1,0-0.2,0c-0.1,0-0.1,0-0.2,0c-0.1,0-0.1,0-0.2,0v-0.3c0.1,0,0.2,0,0.3,0c0.1,0,0.2,0,0.2,0s0.2,0,0.3,0
		c0.1,0,0.2,0,0.3,0.1c0.1,0.1,0.1,0.1,0.1,0.3v0.9H3.9l0-0.1c0,0-0.1,0-0.1,0.1c0,0-0.1,0-0.1,0C3.6,17.2,3.5,17.2,3.4,17.2
		L3.4,17.2L3.4,17.2z M5.4,16.4v-0.5h0.4v1.2H5.4v-0.5H5v0.5H4.6v-1.2H5v0.5H5.4L5.4,16.4z M6.1,16.3c0-0.1,0-0.2,0.1-0.3
		c0.1-0.1,0.2-0.1,0.3-0.1h0.7v0.3H6.6c-0.1,0-0.1,0-0.1,0.1v0.5c0,0,0,0,0,0.1c0,0,0,0,0.1,0c0.1,0,0.1,0,0.2,0c0.1,0,0.1,0,0.2,0
		c0.1,0,0.1,0,0.2,0v0.3c-0.1,0-0.2,0-0.3,0c-0.1,0-0.2,0-0.2,0c-0.1,0-0.2,0-0.3,0c-0.1,0-0.2,0-0.3-0.1c-0.1-0.1-0.1-0.1-0.1-0.3
		V16.3L6.1,16.3z M8,17.2c-0.2,0-0.3,0-0.3-0.1c-0.1-0.1-0.1-0.2-0.1-0.3V16c0-0.2,0-0.3,0.1-0.4c0.1-0.1,0.2-0.1,0.4-0.1h0.8v0.3
		H8.1c-0.1,0-0.1,0-0.1,0.1v0.7c0,0,0,0.1,0,0.1c0,0,0,0,0.1,0c0,0,0.1,0,0.1,0c0,0,0.1,0,0.1,0c0,0,0.1,0,0.1,0c0,0,0.1,0,0.1,0
		c0.1,0,0.2,0,0.3,0v0.3c-0.1,0-0.2,0-0.3,0c-0.1,0-0.2,0-0.3,0C8.1,17.2,8.1,17.2,8,17.2L8,17.2z M9.7,16.2v0.9H9.3v-0.9H8.9v-0.3
		h1.2v0.3H9.7L9.7,16.2z M10.7,16.8h0.3c0.1,0,0.1,0,0.1-0.1v-0.4c0,0,0,0,0-0.1c0,0,0,0-0.1,0H11c0,0-0.1,0-0.1,0c0,0-0.1,0-0.1,0
		c0,0-0.1,0-0.1,0V16.8L10.7,16.8z M10.7,17.2v0.4h-0.4v-1.6h0.4l0,0.1c0,0,0.1,0,0.1-0.1c0,0,0.1,0,0.1,0c0,0,0.1,0,0.2,0h0.1
		c0.1,0,0.2,0,0.3,0.1c0.1,0.1,0.1,0.1,0.1,0.3v0.5c0,0.1,0,0.2-0.1,0.3c-0.1,0.1-0.2,0.1-0.3,0.1H10.7L10.7,17.2z M13.2,16.8
		c0,0.1,0,0.2-0.1,0.3c-0.1,0.1-0.2,0.1-0.3,0.1h-0.5c-0.1,0-0.2,0-0.3-0.1c-0.1-0.1-0.1-0.2-0.1-0.3v-0.5c0-0.1,0-0.2,0.1-0.3
		c0.1-0.1,0.2-0.1,0.3-0.1h0.5c0.1,0,0.2,0,0.3,0.1c0.1,0.1,0.1,0.2,0.1,0.3V16.8L13.2,16.8z M12.7,16.3
		C12.7,16.2,12.7,16.2,12.7,16.3l-0.4-0.1c-0.1,0-0.1,0-0.1,0.1v0.5c0,0.1,0,0.1,0.1,0.1h0.3c0.1,0,0.1,0,0.1-0.1V16.3L12.7,16.3z
		 M13.9,15.8c-0.2,0-0.3-0.1-0.3-0.3v-0.1h0.3v0.1c0,0,0,0,0,0.1c0,0,0,0,0.1,0h0.1c0,0,0,0,0.1,0c0,0,0,0,0-0.1v-0.1h0.3v0.1
		c0,0.2-0.1,0.3-0.3,0.3H13.9L13.9,15.8z M14.3,15.9h0.4v1.2h-0.4v-0.7l-0.4,0.7h-0.4v-1.2h0.4v0.7L14.3,15.9L14.3,15.9z"/>
</g>
</svg>
