<?xml version="1.0" encoding="utf-8"?>
<!-- Generator: Adobe Illustrator 19.0.0, SVG Export Plug-In . SVG Version: 6.00 Build 0)  -->
<svg version="1.1" id="Layer_1" xmlns="http://www.w3.org/2000/svg" xmlns:xlink="http://www.w3.org/1999/xlink" x="0px" y="0px"
	 viewBox="0 0 73 78.7" style="enable-background:new 0 0 73 78.7;" xml:space="preserve">
<style type="text/css">
	
		.st0{fill-rule:evenodd;clip-rule:evenodd;fill:none;stroke:#B8B8B8;stroke-width:1.4;stroke-linecap:round;stroke-linejoin:round;stroke-miterlimit:22.9256;}
	.st1{fill:none;stroke:#B8B8B8;stroke-width:1.4;stroke-linecap:round;stroke-linejoin:round;stroke-miterlimit:22.9256;}
</style>
<path class="st0" d="M48.7,66.3H3.5c-0.7,0-1.3-0.6-1.3-1.3V3.3C2.2,2.6,2.8,2,3.5,2h45.2C49.4,2,50,2.6,50,3.3V65
	C50,65.8,49.4,66.3,48.7,66.3z"/>
<line class="st1" x1="7.1" y1="61.7" x2="45.2" y2="61.7"/>
<line class="st1" x1="7.1" y1="48" x2="45.2" y2="48"/>
<line class="st1" x1="7.1" y1="51.4" x2="45.2" y2="51.4"/>
<line class="st1" x1="7.1" y1="54.8" x2="45.2" y2="54.8"/>
<line class="st1" x1="7.1" y1="58.3" x2="45.2" y2="58.3"/>
<path class="st1" d="M38.9,61.7"/>
<path class="st1" d="M32.5,61.7"/>
<path class="st1" d="M26.1,61.7"/>
<path class="st1" d="M19.8,61.7"/>
<path class="st1" d="M13.4,61.7"/>
<line class="st1" x1="7" y1="23.8" x2="45.2" y2="23.8"/>
<line class="st1" x1="7" y1="20.4" x2="45.2" y2="20.4"/>
<path class="st1" d="M38.8,23.8"/>
<path class="st1" d="M32.5,23.8"/>
<path class="st1" d="M26.1,23.8"/>
<path class="st1" d="M19.8,23.8"/>
<path class="st1" d="M13.4,23.8"/>
<path class="st0" d="M50,12.4h20.3c0.8,0,1.5,0.7,1.5,1.5v61.4c0,0.8-0.7,1.5-1.5,1.5H25.4c-0.8,0-1.5-0.7-1.5-1.5v-8.9"/>
<line class="st1" x1="50" y1="16.9" x2="66.9" y2="16.9"/>
<line class="st1" x1="50" y1="20.4" x2="66.9" y2="20.4"/>
<path class="st1" d="M64.1,30.7"/>
<path class="st1" d="M61.3,30.7"/>
<path class="st1" d="M58.4,30.7"/>
<path class="st1" d="M55.6,30.7"/>
<path class="st1" d="M52.8,30.7"/>
<rect x="7" y="27.3" class="st1" width="38.2" height="17.2"/>
<line class="st1" x1="50" y1="54.8" x2="66.9" y2="54.8"/>
<line class="st1" x1="50" y1="58.3" x2="66.9" y2="58.3"/>
<path class="st1" d="M64.1,72"/>
<path class="st1" d="M61.2,72"/>
<path class="st1" d="M58.4,72"/>
<path class="st1" d="M55.6,72"/>
<path class="st1" d="M52.8,72"/>
<rect x="50" y="23.8" class="st1" width="17" height="27.6"/>
<polyline class="st1" points="50,61.7 66.9,61.7 66.9,72.1 28.8,72.1 28.8,66.3 "/>
<rect x="7.1" y="6.3" class="st1" width="38.2" height="10.7"/>
</svg>
